<mxfile host="app.diagrams.net" modified="2023-03-31T07:57:57.480Z" agent="Mozilla/5.0 (Macintosh; Intel Mac OS X 10_15_7) AppleWebKit/537.36 (KHTML, like Gecko) Chrome/111.0.0.0 Safari/537.36" etag="uc9qA1vLZnVVH8WZ2KRj" version="21.1.1" type="github" pages="2">
  <diagram name="第 1 页" id="84rvlYCWFrmrgSBU5Zq5">
    <mxGraphModel dx="1023" dy="741" grid="1" gridSize="10" guides="1" tooltips="1" connect="1" arrows="1" fold="1" page="1" pageScale="1" pageWidth="827" pageHeight="1169" math="0" shadow="0">
      <root>
        <mxCell id="0" />
        <mxCell id="1" parent="0" />
        <mxCell id="oiFu_SZ9HfTaLTCigJUe-17" value="" style="rounded=0;whiteSpace=wrap;html=1;" vertex="1" parent="1">
          <mxGeometry x="140" y="170" width="600" height="530" as="geometry" />
        </mxCell>
        <mxCell id="oiFu_SZ9HfTaLTCigJUe-14" style="edgeStyle=orthogonalEdgeStyle;rounded=0;orthogonalLoop=1;jettySize=auto;html=1;entryX=0.5;entryY=0;entryDx=0;entryDy=0;" edge="1" parent="1" source="oiFu_SZ9HfTaLTCigJUe-2" target="oiFu_SZ9HfTaLTCigJUe-3">
          <mxGeometry relative="1" as="geometry" />
        </mxCell>
        <mxCell id="oiFu_SZ9HfTaLTCigJUe-2" value="Restful API" style="rounded=0;whiteSpace=wrap;html=1;" vertex="1" parent="1">
          <mxGeometry x="160" y="200" width="120" height="60" as="geometry" />
        </mxCell>
        <mxCell id="oiFu_SZ9HfTaLTCigJUe-9" style="edgeStyle=orthogonalEdgeStyle;shape=link;rounded=0;orthogonalLoop=1;jettySize=auto;html=1;entryX=0;entryY=0.5;entryDx=0;entryDy=0;entryPerimeter=0;" edge="1" parent="1" source="oiFu_SZ9HfTaLTCigJUe-3" target="oiFu_SZ9HfTaLTCigJUe-8">
          <mxGeometry relative="1" as="geometry" />
        </mxCell>
        <mxCell id="oiFu_SZ9HfTaLTCigJUe-29" style="edgeStyle=orthogonalEdgeStyle;rounded=0;orthogonalLoop=1;jettySize=auto;html=1;entryX=0.5;entryY=0;entryDx=0;entryDy=0;" edge="1" parent="1" source="oiFu_SZ9HfTaLTCigJUe-3" target="oiFu_SZ9HfTaLTCigJUe-15">
          <mxGeometry relative="1" as="geometry" />
        </mxCell>
        <mxCell id="oiFu_SZ9HfTaLTCigJUe-30" style="edgeStyle=orthogonalEdgeStyle;rounded=0;orthogonalLoop=1;jettySize=auto;html=1;entryX=0.5;entryY=0;entryDx=0;entryDy=0;" edge="1" parent="1" source="oiFu_SZ9HfTaLTCigJUe-3" target="oiFu_SZ9HfTaLTCigJUe-10">
          <mxGeometry relative="1" as="geometry">
            <Array as="points">
              <mxPoint x="220" y="370" />
              <mxPoint x="380" y="370" />
            </Array>
          </mxGeometry>
        </mxCell>
        <mxCell id="oiFu_SZ9HfTaLTCigJUe-31" style="edgeStyle=orthogonalEdgeStyle;rounded=0;orthogonalLoop=1;jettySize=auto;html=1;entryX=0.5;entryY=0;entryDx=0;entryDy=0;" edge="1" parent="1" source="oiFu_SZ9HfTaLTCigJUe-3" target="oiFu_SZ9HfTaLTCigJUe-16">
          <mxGeometry relative="1" as="geometry">
            <Array as="points">
              <mxPoint x="220" y="370" />
              <mxPoint x="540" y="370" />
            </Array>
          </mxGeometry>
        </mxCell>
        <mxCell id="oiFu_SZ9HfTaLTCigJUe-3" value="Core" style="rounded=0;whiteSpace=wrap;html=1;" vertex="1" parent="1">
          <mxGeometry x="160" y="280" width="120" height="60" as="geometry" />
        </mxCell>
        <mxCell id="oiFu_SZ9HfTaLTCigJUe-8" value="MySQL" style="shape=cylinder3;whiteSpace=wrap;html=1;boundedLbl=1;backgroundOutline=1;size=15;" vertex="1" parent="1">
          <mxGeometry x="480" y="270" width="60" height="80" as="geometry" />
        </mxCell>
        <mxCell id="oiFu_SZ9HfTaLTCigJUe-10" value="StorageProvider" style="rounded=0;whiteSpace=wrap;html=1;" vertex="1" parent="1">
          <mxGeometry x="320" y="400" width="120" height="60" as="geometry" />
        </mxCell>
        <mxCell id="oiFu_SZ9HfTaLTCigJUe-12" style="edgeStyle=orthogonalEdgeStyle;rounded=0;orthogonalLoop=1;jettySize=auto;html=1;" edge="1" parent="1" source="oiFu_SZ9HfTaLTCigJUe-11" target="oiFu_SZ9HfTaLTCigJUe-2">
          <mxGeometry relative="1" as="geometry" />
        </mxCell>
        <mxCell id="oiFu_SZ9HfTaLTCigJUe-11" value="Actor" style="shape=umlActor;verticalLabelPosition=bottom;verticalAlign=top;html=1;outlineConnect=0;" vertex="1" parent="1">
          <mxGeometry x="50" y="100" width="30" height="60" as="geometry" />
        </mxCell>
        <mxCell id="oiFu_SZ9HfTaLTCigJUe-15" value="ComputeProvider" style="rounded=0;whiteSpace=wrap;html=1;" vertex="1" parent="1">
          <mxGeometry x="160" y="400" width="120" height="60" as="geometry" />
        </mxCell>
        <mxCell id="oiFu_SZ9HfTaLTCigJUe-19" style="edgeStyle=orthogonalEdgeStyle;rounded=0;orthogonalLoop=1;jettySize=auto;html=1;" edge="1" parent="1" source="oiFu_SZ9HfTaLTCigJUe-16" target="oiFu_SZ9HfTaLTCigJUe-18">
          <mxGeometry relative="1" as="geometry" />
        </mxCell>
        <mxCell id="oiFu_SZ9HfTaLTCigJUe-16" value="ContainerProvider" style="rounded=0;whiteSpace=wrap;html=1;" vertex="1" parent="1">
          <mxGeometry x="480" y="400" width="120" height="60" as="geometry" />
        </mxCell>
        <mxCell id="oiFu_SZ9HfTaLTCigJUe-18" value="CAE软件容器仓库" style="shape=cylinder3;whiteSpace=wrap;html=1;boundedLbl=1;backgroundOutline=1;size=15;" vertex="1" parent="1">
          <mxGeometry x="767" y="390" width="60" height="80" as="geometry" />
        </mxCell>
        <mxCell id="oiFu_SZ9HfTaLTCigJUe-20" value="singularity" style="rounded=0;whiteSpace=wrap;html=1;" vertex="1" parent="1">
          <mxGeometry x="480" y="460" width="120" height="60" as="geometry" />
        </mxCell>
        <mxCell id="oiFu_SZ9HfTaLTCigJUe-24" value="本地/共享型存储" style="rounded=0;whiteSpace=wrap;html=1;" vertex="1" parent="1">
          <mxGeometry x="320" y="460" width="120" height="60" as="geometry" />
        </mxCell>
        <mxCell id="oiFu_SZ9HfTaLTCigJUe-25" value="S3" style="rounded=0;whiteSpace=wrap;html=1;" vertex="1" parent="1">
          <mxGeometry x="320" y="520" width="120" height="60" as="geometry" />
        </mxCell>
        <mxCell id="oiFu_SZ9HfTaLTCigJUe-26" value="远算存储" style="rounded=0;whiteSpace=wrap;html=1;" vertex="1" parent="1">
          <mxGeometry x="320" y="580" width="120" height="60" as="geometry" />
        </mxCell>
        <mxCell id="oiFu_SZ9HfTaLTCigJUe-27" value="Slurm" style="rounded=0;whiteSpace=wrap;html=1;" vertex="1" parent="1">
          <mxGeometry x="160" y="460" width="120" height="60" as="geometry" />
        </mxCell>
        <mxCell id="oiFu_SZ9HfTaLTCigJUe-28" value="Pbspro" style="rounded=0;whiteSpace=wrap;html=1;" vertex="1" parent="1">
          <mxGeometry x="160" y="520" width="120" height="60" as="geometry" />
        </mxCell>
      </root>
    </mxGraphModel>
  </diagram>
  <diagram id="PBWQEyDRHY6j74AO-d7Q" name="第 2 页">
    <mxGraphModel dx="1023" dy="684" grid="1" gridSize="10" guides="1" tooltips="1" connect="1" arrows="1" fold="1" page="1" pageScale="1" pageWidth="827" pageHeight="1169" math="0" shadow="0">
      <root>
        <mxCell id="0" />
        <mxCell id="1" parent="0" />
        <mxCell id="9QQAE_SDpOW6i8t3I2hw-1" value="Standard-Compute 2" style="rounded=0;whiteSpace=wrap;html=1;" vertex="1" parent="1">
          <mxGeometry x="600" y="170" width="120" height="60" as="geometry" />
        </mxCell>
        <mxCell id="9QQAE_SDpOW6i8t3I2hw-2" value="Actor" style="shape=umlActor;verticalLabelPosition=bottom;verticalAlign=top;html=1;outlineConnect=0;" vertex="1" parent="1">
          <mxGeometry x="340" y="480" width="30" height="60" as="geometry" />
        </mxCell>
        <mxCell id="9QQAE_SDpOW6i8t3I2hw-14" style="edgeStyle=orthogonalEdgeStyle;rounded=0;orthogonalLoop=1;jettySize=auto;html=1;" edge="1" parent="1" source="9QQAE_SDpOW6i8t3I2hw-5" target="9QQAE_SDpOW6i8t3I2hw-6">
          <mxGeometry relative="1" as="geometry">
            <Array as="points">
              <mxPoint x="270" y="430" />
            </Array>
          </mxGeometry>
        </mxCell>
        <mxCell id="9QQAE_SDpOW6i8t3I2hw-5" value="cloud.yuansuan.cn" style="rounded=0;whiteSpace=wrap;html=1;" vertex="1" parent="1">
          <mxGeometry x="210" y="80" width="120" height="60" as="geometry" />
        </mxCell>
        <mxCell id="9QQAE_SDpOW6i8t3I2hw-6" value="NativeApp or AppServer&lt;br&gt;power by OpenAPI&amp;nbsp;" style="rounded=0;whiteSpace=wrap;html=1;" vertex="1" parent="1">
          <mxGeometry x="354" y="400" width="120" height="60" as="geometry" />
        </mxCell>
        <mxCell id="9QQAE_SDpOW6i8t3I2hw-8" value="Job control" style="text;html=1;align=center;verticalAlign=middle;resizable=0;points=[];autosize=1;strokeColor=none;fillColor=none;" vertex="1" parent="1">
          <mxGeometry x="190" y="270" width="80" height="30" as="geometry" />
        </mxCell>
        <mxCell id="9QQAE_SDpOW6i8t3I2hw-10" value="" style="shape=flexArrow;endArrow=classic;html=1;rounded=0;exitX=0;exitY=0.5;exitDx=0;exitDy=0;entryX=0.5;entryY=0;entryDx=0;entryDy=0;" edge="1" parent="1" source="9QQAE_SDpOW6i8t3I2hw-1" target="9QQAE_SDpOW6i8t3I2hw-6">
          <mxGeometry width="50" height="50" relative="1" as="geometry">
            <mxPoint x="630" y="290" as="sourcePoint" />
            <mxPoint x="500" y="400" as="targetPoint" />
          </mxGeometry>
        </mxCell>
        <mxCell id="9QQAE_SDpOW6i8t3I2hw-11" value="File Transform(Direct)" style="text;html=1;align=center;verticalAlign=middle;resizable=0;points=[];autosize=1;strokeColor=none;fillColor=none;" vertex="1" parent="1">
          <mxGeometry x="500" y="310" width="140" height="30" as="geometry" />
        </mxCell>
        <mxCell id="9QQAE_SDpOW6i8t3I2hw-12" value="Standard-Compute 1" style="rounded=0;whiteSpace=wrap;html=1;" vertex="1" parent="1">
          <mxGeometry x="600" y="80" width="120" height="60" as="geometry" />
        </mxCell>
        <mxCell id="9QQAE_SDpOW6i8t3I2hw-13" value="" style="shape=flexArrow;endArrow=classic;html=1;rounded=0;exitX=0;exitY=0.5;exitDx=0;exitDy=0;" edge="1" parent="1" source="9QQAE_SDpOW6i8t3I2hw-12">
          <mxGeometry width="50" height="50" relative="1" as="geometry">
            <mxPoint x="546" y="130" as="sourcePoint" />
            <mxPoint x="410" y="400" as="targetPoint" />
          </mxGeometry>
        </mxCell>
      </root>
    </mxGraphModel>
  </diagram>
</mxfile>
